<mxfile host="app.diagrams.net" agent="Mozilla/5.0 (X11; Linux x86_64; rv:136.0) Gecko/20100101 Firefox/136.0" version="26.1.1">
  <diagram name="Page-1" id="tpXGgslPTCOo6HIRn37G">
    <mxGraphModel dx="1839" dy="539" grid="1" gridSize="10" guides="1" tooltips="1" connect="1" arrows="1" fold="1" page="1" pageScale="1" pageWidth="850" pageHeight="1100" math="0" shadow="0">
      <root>
        <mxCell id="0" />
        <mxCell id="1" parent="0" />
        <mxCell id="Z9ru_VuTjuzVVLZ6QAJo-6" style="edgeStyle=orthogonalEdgeStyle;rounded=0;orthogonalLoop=1;jettySize=auto;html=1;exitX=0.5;exitY=1;exitDx=0;exitDy=0;entryX=0.5;entryY=0;entryDx=0;entryDy=0;startArrow=classic;startFill=1;" edge="1" parent="1" source="Z9ru_VuTjuzVVLZ6QAJo-1" target="Z9ru_VuTjuzVVLZ6QAJo-5">
          <mxGeometry relative="1" as="geometry" />
        </mxCell>
        <mxCell id="Z9ru_VuTjuzVVLZ6QAJo-11" style="edgeStyle=orthogonalEdgeStyle;rounded=0;orthogonalLoop=1;jettySize=auto;html=1;exitX=0.5;exitY=0;exitDx=0;exitDy=0;entryX=0.5;entryY=1;entryDx=0;entryDy=0;startArrow=classic;startFill=1;" edge="1" parent="1" source="Z9ru_VuTjuzVVLZ6QAJo-1" target="Z9ru_VuTjuzVVLZ6QAJo-10">
          <mxGeometry relative="1" as="geometry" />
        </mxCell>
        <mxCell id="Z9ru_VuTjuzVVLZ6QAJo-1" value="Display Engine" style="rounded=1;whiteSpace=wrap;html=1;" vertex="1" parent="1">
          <mxGeometry x="380" y="280" width="120" height="60" as="geometry" />
        </mxCell>
        <mxCell id="Z9ru_VuTjuzVVLZ6QAJo-7" style="edgeStyle=orthogonalEdgeStyle;rounded=0;orthogonalLoop=1;jettySize=auto;html=1;exitX=1;exitY=0.5;exitDx=0;exitDy=0;entryX=0;entryY=0.5;entryDx=0;entryDy=0;startArrow=classic;startFill=1;" edge="1" parent="1" source="Z9ru_VuTjuzVVLZ6QAJo-2" target="Z9ru_VuTjuzVVLZ6QAJo-1">
          <mxGeometry relative="1" as="geometry" />
        </mxCell>
        <mxCell id="Z9ru_VuTjuzVVLZ6QAJo-2" value="Display Handler" style="rounded=1;whiteSpace=wrap;html=1;" vertex="1" parent="1">
          <mxGeometry x="160" y="280" width="120" height="60" as="geometry" />
        </mxCell>
        <mxCell id="Z9ru_VuTjuzVVLZ6QAJo-8" style="edgeStyle=orthogonalEdgeStyle;rounded=0;orthogonalLoop=1;jettySize=auto;html=1;exitX=1;exitY=0.5;exitDx=0;exitDy=0;entryX=0;entryY=0.25;entryDx=0;entryDy=0;startArrow=classic;startFill=1;" edge="1" parent="1" source="Z9ru_VuTjuzVVLZ6QAJo-3" target="Z9ru_VuTjuzVVLZ6QAJo-2">
          <mxGeometry relative="1" as="geometry" />
        </mxCell>
        <mxCell id="Z9ru_VuTjuzVVLZ6QAJo-3" value="Hardware" style="rounded=1;whiteSpace=wrap;html=1;" vertex="1" parent="1">
          <mxGeometry x="-60" y="220" width="120" height="60" as="geometry" />
        </mxCell>
        <mxCell id="Z9ru_VuTjuzVVLZ6QAJo-9" style="edgeStyle=orthogonalEdgeStyle;rounded=0;orthogonalLoop=1;jettySize=auto;html=1;exitX=1;exitY=0.5;exitDx=0;exitDy=0;entryX=0;entryY=0.75;entryDx=0;entryDy=0;startArrow=classic;startFill=1;" edge="1" parent="1" source="Z9ru_VuTjuzVVLZ6QAJo-4" target="Z9ru_VuTjuzVVLZ6QAJo-2">
          <mxGeometry relative="1" as="geometry" />
        </mxCell>
        <mxCell id="Z9ru_VuTjuzVVLZ6QAJo-4" value="Vision" style="rounded=1;whiteSpace=wrap;html=1;" vertex="1" parent="1">
          <mxGeometry x="-60" y="340" width="120" height="60" as="geometry" />
        </mxCell>
        <mxCell id="Z9ru_VuTjuzVVLZ6QAJo-5" value="SQLite Database" style="rounded=1;whiteSpace=wrap;html=1;" vertex="1" parent="1">
          <mxGeometry x="380" y="400" width="120" height="60" as="geometry" />
        </mxCell>
        <mxCell id="Z9ru_VuTjuzVVLZ6QAJo-10" value="Touchscreen" style="rounded=1;whiteSpace=wrap;html=1;" vertex="1" parent="1">
          <mxGeometry x="380" y="160" width="120" height="60" as="geometry" />
        </mxCell>
        <mxCell id="Z9ru_VuTjuzVVLZ6QAJo-13" style="edgeStyle=orthogonalEdgeStyle;rounded=0;orthogonalLoop=1;jettySize=auto;html=1;exitX=0.5;exitY=1;exitDx=0;exitDy=0;entryX=0.5;entryY=0;entryDx=0;entryDy=0;" edge="1" parent="1" source="Z9ru_VuTjuzVVLZ6QAJo-12" target="Z9ru_VuTjuzVVLZ6QAJo-2">
          <mxGeometry relative="1" as="geometry" />
        </mxCell>
        <mxCell id="Z9ru_VuTjuzVVLZ6QAJo-14" style="edgeStyle=orthogonalEdgeStyle;rounded=0;orthogonalLoop=1;jettySize=auto;html=1;exitX=1;exitY=0.75;exitDx=0;exitDy=0;entryX=0;entryY=0.25;entryDx=0;entryDy=0;" edge="1" parent="1" source="Z9ru_VuTjuzVVLZ6QAJo-12" target="Z9ru_VuTjuzVVLZ6QAJo-1">
          <mxGeometry relative="1" as="geometry" />
        </mxCell>
        <mxCell id="Z9ru_VuTjuzVVLZ6QAJo-12" value="Display Entry" style="rounded=1;whiteSpace=wrap;html=1;" vertex="1" parent="1">
          <mxGeometry x="160" y="150" width="120" height="60" as="geometry" />
        </mxCell>
      </root>
    </mxGraphModel>
  </diagram>
</mxfile>
